<?xml version="1.0" encoding="UTF-8"?>
<!-- Chrome Web Store small promo tile — 440 x 280 -->
<svg xmlns="http://www.w3.org/2000/svg" viewBox="0 0 440 280" width="440" height="280">
    <rect width="440" height="280" fill="#032044" />
    <rect x="0" y="0" width="440" height="4" fill="#F15A22" />

    <g transform="translate(28,40)">
        <rect width="64" height="64" rx="14" fill="#F15A22" />
        <g transform="translate(32,32)">
            <rect x="-13" y="-15" width="6" height="30" rx="1" fill="#FFFFFF" />
            <path d="M -8 -15 H 0 a 7 7 0 0 1 7 7 v 0 a 7 7 0 0 1 -7 7 H -8 z" fill="none" stroke="#FFFFFF" stroke-width="5" stroke-linejoin="round" />
            <path d="M 0 -1 L 9 15" stroke="#FFFFFF" stroke-width="5" stroke-linecap="round" />
            <g transform="translate(10,-9)">
                <rect x="-1.2" y="-6" width="2.4" height="12" rx="0.6" fill="#FFFFFF" />
                <rect x="-6" y="-1.2" width="12" height="2.4" rx="0.6" fill="#FFFFFF" />
            </g>
        </g>
    </g>

    <text x="108" y="64" font-family="Manrope, Inter, sans-serif" font-weight="800" font-size="34" fill="#FFFFFF" letter-spacing="-1">UTSA Reg<tspan fill="#F15A22">+</tspan></text>
    <text x="108" y="92" font-family="Inter, sans-serif" font-weight="600" font-size="11" fill="#C8DCFF" letter-spacing="2">REGISTRATION TOOLS FOR UTSA STUDENTS</text>

    <text x="28" y="168" font-family="Inter, sans-serif" font-weight="600" font-size="14" fill="#FFFFFF">RateMyProfessor data on every section.</text>
    <text x="28" y="196" font-family="Inter, sans-serif" font-weight="600" font-size="14" fill="#FFFFFF">Conflict-aware schedule building.</text>
    <text x="28" y="224" font-family="Inter, sans-serif" font-weight="600" font-size="14" fill="#FFFFFF">F1 credit-hour tracking for international students.</text>
</svg>
